<svg width="15" height="13" viewBox="0 0 15 13" fill="none" xmlns="http://www.w3.org/2000/svg">
<g clip-path="url(#clip0_2_275)">
<path d="M1.11249 6.37758H12.3341L8.03715 2.28483C7.81215 2.07051 7.80343 1.71445 8.01774 1.48945C8.23177 1.26473 8.58783 1.25573 8.81311 1.47005L13.7204 6.14442C13.9327 6.35704 14.05 6.63942 14.05 6.94008C14.05 7.24045 13.9327 7.52311 13.7105 7.74501L8.81283 12.4099C8.70399 12.5136 8.56449 12.5651 8.42499 12.5651C8.27649 12.5651 8.12799 12.5066 8.01746 12.3905C7.80315 12.1655 7.81187 11.8097 8.03687 11.5954L12.3518 7.50258H1.11249C0.801988 7.50258 0.549988 7.25058 0.549988 6.94008C0.549988 6.62958 0.801988 6.37758 1.11249 6.37758Z" fill="#1A1A1A"/>
</g>
<defs>
<clipPath id="clip0_2_275">
<rect width="14" height="12" fill="white" transform="translate(0.299988 0.939941)"/>
</clipPath>
</defs>
</svg>
