<svg width="18" height="18" viewBox="0 0 18 18" fill="none" xmlns="http://www.w3.org/2000/svg">
<path d="M9.00994 12.19C9.12994 12.19 9.21994 12.16 9.27994 12.1C9.33994 12.04 9.36994 11.95 9.36994 11.83V10.21C9.36994 10.05 9.30994 9.94002 9.18994 9.88002C9.06994 9.82002 8.94994 9.82002 8.82994 9.88002C8.70994 9.94002 8.64994 10.05 8.64994 10.21V11.83C8.64994 11.95 8.68994 12.04 8.76994 12.1C8.84994 12.16 8.92994 12.19 9.00994 12.19ZM9.00994 4.81002C9.12994 4.81002 9.21994 4.78002 9.27994 4.72002C9.33994 4.66002 9.36994 4.59002 9.36994 4.51002V2.83002C9.36994 2.71002 9.30994 2.62002 9.18994 2.56002C9.06994 2.50002 8.94994 2.50002 8.82994 2.56002C8.70994 2.62002 8.64994 2.71002 8.64994 2.83002V4.51002C8.64994 4.59002 8.68994 4.66002 8.76994 4.72002C8.84994 4.78002 8.92994 4.81002 9.00994 4.81002ZM9.00994 8.53002C9.12994 8.53002 9.21994 8.49002 9.27994 8.41002C9.33994 8.33002 9.36994 8.25002 9.36994 8.17002V6.55002C9.36994 6.43002 9.33994 6.34002 9.27994 6.28002C9.21994 6.22002 9.13994 6.19002 9.03994 6.19002C8.93994 6.19002 8.84994 6.22002 8.76994 6.28002C8.68994 6.34002 8.64994 6.43002 8.64994 6.55002V8.17002C8.64994 8.25002 8.68994 8.33002 8.76994 8.41002C8.84994 8.49002 8.92994 8.53002 9.00994 8.53002ZM11.4699 4.81002C11.5499 4.81002 11.6299 4.78002 11.7099 4.72002C11.7899 4.66002 11.8299 4.59002 11.8299 4.51002V2.83002C11.8299 2.75002 11.7899 2.67002 11.7099 2.59002C11.6299 2.51002 11.5499 2.47002 11.4699 2.47002C11.3899 2.47002 11.3099 2.51002 11.2299 2.59002C11.1499 2.67002 11.1099 2.75002 11.1099 2.83002V4.51002C11.1099 4.59002 11.1499 4.66002 11.2299 4.72002C11.3099 4.78002 11.3899 4.81002 11.4699 4.81002ZM11.4699 8.53002C11.5499 8.53002 11.6299 8.49002 11.7099 8.41002C11.7899 8.33002 11.8299 8.25002 11.8299 8.17002V6.55002C11.8299 6.43002 11.7899 6.34002 11.7099 6.28002C11.6299 6.22002 11.5499 6.19002 11.4699 6.19002C11.3899 6.19002 11.3099 6.22002 11.2299 6.28002C11.1499 6.34002 11.1099 6.43002 11.1099 6.55002V8.17002C11.1099 8.25002 11.1499 8.33002 11.2299 8.41002C11.3099 8.49002 11.3899 8.53002 11.4699 8.53002ZM11.4699 12.19C11.5499 12.19 11.6299 12.16 11.7099 12.1C11.7899 12.04 11.8299 11.95 11.8299 11.83V10.21C11.8299 10.09 11.7899 10 11.7099 9.94002C11.6299 9.88002 11.5499 9.85002 11.4699 9.85002C11.3899 9.85002 11.3099 9.88002 11.2299 9.94002C11.1499 10 11.1099 10.09 11.1099 10.21V11.83C11.1099 11.95 11.1499 12.04 11.2299 12.1C11.3099 12.16 11.3899 12.19 11.4699 12.19ZM15.5499 13.51H15.8499C15.9299 13.51 15.9999 13.48 16.0599 13.42C16.1199 13.36 16.1499 13.28 16.1499 13.18C16.1499 13.08 16.1199 13 16.0599 12.94C15.9999 12.88 15.9299 12.85 15.8499 12.85H15.5499C15.4299 12.85 15.3399 12.88 15.2799 12.94C15.2199 13 15.1899 13.08 15.1899 13.18C15.1899 13.28 15.2199 13.36 15.2799 13.42C15.3399 13.48 15.4299 13.51 15.5499 13.51ZM15.5499 11.53H15.8499C15.9299 11.53 15.9999 11.5 16.0599 11.44C16.1199 11.38 16.1499 11.3 16.1499 11.2C16.1499 11.1 16.1199 11.01 16.0599 10.93C15.9999 10.85 15.9299 10.81 15.8499 10.81H15.5499C15.4299 10.81 15.3399 10.85 15.2799 10.93C15.2199 11.01 15.1899 11.1 15.1899 11.2C15.1899 11.3 15.2199 11.38 15.2799 11.44C15.3399 11.5 15.4299 11.53 15.5499 11.53ZM15.5499 15.49H15.8499C15.9299 15.49 15.9999 15.45 16.0599 15.37C16.1199 15.29 16.1499 15.21 16.1499 15.13C16.1499 15.05 16.1199 14.97 16.0599 14.89C15.9999 14.81 15.9299 14.77 15.8499 14.77H15.5499C15.4299 14.77 15.3399 14.81 15.2799 14.89C15.2199 14.97 15.1899 15.05 15.1899 15.13C15.1899 15.21 15.2199 15.29 15.2799 15.37C15.3399 15.45 15.4299 15.49 15.5499 15.49ZM4.86994 9.55002H5.16994C5.24994 9.55002 5.31994 9.52002 5.37994 9.46002C5.43994 9.40002 5.46994 9.32002 5.46994 9.22002C5.46994 9.12002 5.43994 9.04002 5.37994 8.98002C5.31994 8.92002 5.24994 8.89002 5.16994 8.89002H4.86994C4.74994 8.89002 4.65994 8.92002 4.59994 8.98002C4.53994 9.04002 4.50994 9.12002 4.50994 9.22002C4.50994 9.32002 4.53994 9.40002 4.59994 9.46002C4.65994 9.52002 4.74994 9.55002 4.86994 9.55002ZM4.86994 7.57002H5.16994C5.24994 7.57002 5.31994 7.54002 5.37994 7.48002C5.43994 7.42002 5.46994 7.34002 5.46994 7.24002C5.46994 7.14002 5.43994 7.06002 5.37994 7.00002C5.31994 6.94002 5.24994 6.91002 5.16994 6.91002H4.86994C4.74994 6.91002 4.65994 6.94002 4.59994 7.00002C4.53994 7.06002 4.50994 7.14002 4.50994 7.24002C4.50994 7.34002 4.53994 7.42002 4.59994 7.48002C4.65994 7.54002 4.74994 7.57002 4.86994 7.57002ZM4.86994 11.53H5.16994C5.24994 11.53 5.31994 11.5 5.37994 11.44C5.43994 11.38 5.46994 11.3 5.46994 11.2C5.46994 11.1 5.43994 11.01 5.37994 10.93C5.31994 10.85 5.24994 10.81 5.16994 10.81H4.86994C4.70994 10.81 4.59994 10.87 4.53994 10.99C4.47994 11.11 4.47994 11.23 4.53994 11.35C4.59994 11.47 4.70994 11.53 4.86994 11.53ZM17.4699 7.99002H14.2299V0.550018C14.2299 0.430017 14.1999 0.340017 14.1399 0.280018C14.0799 0.220018 13.9899 0.190018 13.8699 0.190018H6.60994C6.52994 0.190018 6.44994 0.230017 6.36994 0.310017C6.28994 0.390017 6.24994 0.470018 6.24994 0.550018V4.87002H3.36994C3.28994 4.87002 3.20994 4.90002 3.12994 4.96002C3.04994 5.02002 3.00994 5.11002 3.00994 5.23002V9.49002C3.00994 9.61002 3.04994 9.70002 3.12994 9.76002C3.20994 9.82002 3.29994 9.85002 3.39994 9.85002C3.49994 9.85002 3.57994 9.82002 3.63994 9.76002C3.69994 9.70002 3.72994 9.61002 3.72994 9.49002V5.53002H6.24994V17.11H3.72994C3.60994 17.11 3.51994 17.15 3.45994 17.23C3.39994 17.31 3.36994 17.4 3.36994 17.5C3.36994 17.6 3.39994 17.68 3.45994 17.74C3.51994 17.8 3.60994 17.83 3.72994 17.83H16.2699C16.7099 17.83 17.0799 17.68 17.3799 17.38C17.6799 17.08 17.8299 16.73 17.8299 16.33V8.35002C17.8299 8.27002 17.7899 8.19002 17.7099 8.11002C17.6299 8.03002 17.5499 7.99002 17.4699 7.99002ZM9.36994 17.11V14.41H11.1099V17.11H9.36994ZM13.5099 17.11H11.8299V14.05C11.8299 13.93 11.7899 13.84 11.7099 13.78C11.6299 13.72 11.5499 13.69 11.4699 13.69H9.00994C8.92994 13.69 8.84994 13.72 8.76994 13.78C8.68994 13.84 8.64994 13.93 8.64994 14.05V17.11H6.96994V0.850018H13.5099V17.11ZM17.1099 16.33C17.1099 16.53 17.0299 16.72 16.8699 16.9C16.7099 17.08 16.5099 17.17 16.2699 17.17H14.2299V8.71002H17.1099V16.33ZM4.32994 13.03C4.32994 12.43 4.02994 11.85 3.42994 11.29C3.10994 10.97 2.76994 10.71 2.40994 10.51C2.32994 10.47 2.22994 10.47 2.10994 10.51C1.78994 10.71 1.44994 10.97 1.08994 11.29C0.489941 11.85 0.189941 12.44 0.189941 13.06C0.189941 13.68 0.349941 14.23 0.669941 14.71C0.989941 15.19 1.40994 15.47 1.92994 15.55V17.47C1.92994 17.59 1.95994 17.68 2.01994 17.74C2.07994 17.8 2.15994 17.83 2.25994 17.83C2.35994 17.83 2.43994 17.8 2.49994 17.74C2.55994 17.68 2.58994 17.59 2.58994 17.47V15.55C3.10994 15.47 3.52994 15.19 3.84994 14.71C4.16994 14.23 4.32994 13.67 4.32994 13.03ZM0.849941 13.03C0.849941 12.71 1.02994 12.35 1.38994 11.95C1.62994 11.71 1.92994 11.47 2.28994 11.23C2.60994 11.47 2.88994 11.71 3.12994 11.95C3.48994 12.35 3.66994 12.71 3.66994 13.03C3.66994 13.47 3.56994 13.86 3.36994 14.2C3.16994 14.54 2.90994 14.75 2.58994 14.83V14.05C2.58994 13.93 2.55994 13.84 2.49994 13.78C2.43994 13.72 2.35994 13.69 2.25994 13.69C2.15994 13.69 2.07994 13.72 2.01994 13.78C1.95994 13.84 1.92994 13.93 1.92994 14.05V14.83C1.60994 14.75 1.34994 14.54 1.14994 14.2C0.949941 13.86 0.849941 13.47 0.849941 13.03Z" fill="#1A1A1A"/>
</svg>
