<svg width="21" height="21" viewBox="0 0 21 21" fill="none" xmlns="http://www.w3.org/2000/svg">
<g clip-path="url(#clip0_2011_198)">
<path d="M16.3867 19.4801H13.9867C13.8534 19.4801 13.72 19.5467 13.5867 19.6801C13.4534 19.8134 13.3867 19.9578 13.3867 20.1134C13.3867 20.2689 13.4534 20.4023 13.5867 20.5134C13.72 20.6245 13.8534 20.6801 13.9867 20.6801H16.3867C16.5645 20.6801 16.7089 20.6245 16.82 20.5134C16.9311 20.4023 16.9867 20.2689 16.9867 20.1134C16.9867 19.9578 16.9311 19.8134 16.82 19.6801C16.7089 19.5467 16.5645 19.4801 16.3867 19.4801ZM11.6534 19.4801H9.32002C9.14224 19.4801 8.9978 19.5467 8.88669 19.6801C8.77558 19.8134 8.72002 19.9578 8.72002 20.1134C8.72002 20.2689 8.77558 20.4023 8.88669 20.5134C8.9978 20.6245 9.14224 20.6801 9.32002 20.6801H11.6534C11.8311 20.6801 11.9756 20.6245 12.0867 20.5134C12.1978 20.4023 12.2534 20.2689 12.2534 20.1134C12.2534 19.9578 12.1978 19.8134 12.0867 19.6801C11.9756 19.5467 11.8311 19.4801 11.6534 19.4801ZM19.92 8.88005C19.7867 8.88005 19.6534 8.93561 19.52 9.04672C19.3867 9.15783 19.32 9.30228 19.32 9.48005V11.8134C19.32 11.9912 19.3867 12.1356 19.52 12.2467C19.6534 12.3578 19.7978 12.4134 19.9534 12.4134C20.1089 12.4134 20.2422 12.3578 20.3534 12.2467C20.4645 12.1356 20.52 11.9912 20.52 11.8134V9.48005C20.52 9.30228 20.4645 9.15783 20.3534 9.04672C20.2422 8.93561 20.0978 8.88005 19.92 8.88005ZM19.92 13.5467C19.7867 13.5467 19.6534 13.6134 19.52 13.7467C19.3867 13.8801 19.32 14.0134 19.32 14.1467V16.4801C19.32 16.6578 19.3867 16.8023 19.52 16.9134C19.6534 17.0245 19.7978 17.0801 19.9534 17.0801C20.1089 17.0801 20.2422 17.0245 20.3534 16.9134C20.4645 16.8023 20.52 16.6578 20.52 16.4801V14.1467C20.52 14.0134 20.4645 13.8801 20.3534 13.7467C20.2422 13.6134 20.0978 13.5467 19.92 13.5467ZM6.98669 19.4801H6.38669V18.9467C6.38669 18.7689 6.33113 18.6245 6.22002 18.5134C6.10891 18.4023 5.96446 18.3467 5.78669 18.3467C5.60891 18.3467 5.46446 18.4023 5.35335 18.5134C5.24224 18.6245 5.18669 18.7689 5.18669 18.9467V20.0801C5.18669 20.2578 5.24224 20.4023 5.35335 20.5134C5.46446 20.6245 5.60891 20.6801 5.78669 20.6801H6.98669C7.12002 20.6801 7.24224 20.6245 7.35335 20.5134C7.46446 20.4023 7.52002 20.2689 7.52002 20.1134C7.52002 19.9578 7.46446 19.8134 7.35335 19.6801C7.24224 19.5467 7.12002 19.4801 6.98669 19.4801ZM19.92 5.34672H18.7867C18.6089 5.34672 18.4645 5.40228 18.3534 5.51339C18.2422 5.6245 18.1867 5.76894 18.1867 5.94672C18.1867 6.1245 18.2422 6.26894 18.3534 6.38005C18.4645 6.49116 18.6089 6.54672 18.7867 6.54672H19.32V7.14672C19.32 7.28005 19.3867 7.40228 19.52 7.51339C19.6534 7.6245 19.7978 7.68005 19.9534 7.68005C20.1089 7.68005 20.2422 7.6245 20.3534 7.51339C20.4645 7.40228 20.52 7.28005 20.52 7.14672V5.94672C20.52 5.76894 20.4645 5.6245 20.3534 5.51339C20.2422 5.40228 20.0978 5.34672 19.92 5.34672ZM19.92 18.3467C19.7867 18.3467 19.6534 18.4023 19.52 18.5134C19.3867 18.6245 19.32 18.7689 19.32 18.9467V19.4801H18.7867C18.6089 19.4801 18.4645 19.5467 18.3534 19.6801C18.2422 19.8134 18.1867 19.9578 18.1867 20.1134C18.1867 20.2689 18.2422 20.4023 18.3534 20.5134C18.4645 20.6245 18.6089 20.6801 18.7867 20.6801H19.92C20.0978 20.6801 20.2422 20.6245 20.3534 20.5134C20.4645 20.4023 20.52 20.2578 20.52 20.0801V18.9467C20.52 18.7689 20.4645 18.6245 20.3534 18.5134C20.2422 18.4023 20.0978 18.3467 19.92 18.3467ZM16.3867 5.34672H15.7867V1.28005C15.7867 1.10227 15.72 0.95783 15.5867 0.846719C15.4534 0.735608 15.32 0.680053 15.1867 0.680053H1.12002C0.942242 0.680053 0.797797 0.735608 0.686686 0.846719C0.575575 0.95783 0.52002 1.10227 0.52002 1.28005V15.3467C0.52002 15.4801 0.575575 15.6134 0.686686 15.7467C0.797797 15.8801 0.942242 15.9467 1.12002 15.9467H5.18669V16.4801C5.18669 16.6578 5.24224 16.8023 5.35335 16.9134C5.46446 17.0245 5.60891 17.0801 5.78669 17.0801C5.96446 17.0801 6.10891 17.0245 6.22002 16.9134C6.33113 16.8023 6.38669 16.6578 6.38669 16.4801V6.54672H16.3867C16.5645 6.54672 16.7089 6.49116 16.82 6.38005C16.9311 6.26894 16.9867 6.1245 16.9867 5.94672C16.9867 5.76894 16.9311 5.6245 16.82 5.51339C16.7089 5.40228 16.5645 5.34672 16.3867 5.34672ZM14.5867 5.34672H5.78669C5.60891 5.34672 5.46446 5.40228 5.35335 5.51339C5.24224 5.6245 5.18669 5.76894 5.18669 5.94672V14.7467H1.72002V1.88005H14.5867V5.34672Z" fill="#1A1A1A"/>
</g>
<defs>
<clipPath id="clip0_2011_198">
<rect width="20" height="20" fill="white" transform="matrix(1 0 0 -1 0.52002 20.6801)"/>
</clipPath>
</defs>
</svg>
