<svg width="51" height="51" viewBox="0 0 51 51" fill="none" xmlns="http://www.w3.org/2000/svg">
<path d="M49.24 20.5801L31.74 8.08008C31.2955 7.74674 30.7955 7.58008 30.24 7.58008C29.6844 7.58008 29.1844 7.74674 28.74 8.08008L17.9067 15.9134C18.5733 16.3579 19.1289 16.969 19.5733 17.7467L30.24 10.0801L47.74 22.5801H42.74V45.0801H17.9067L17.74 47.5801H42.74C43.4067 47.5801 43.99 47.3301 44.49 46.8301C44.99 46.3301 45.24 45.7467 45.24 45.0801V25.0801H47.74C48.2955 25.0801 48.7955 24.9134 49.24 24.5801C49.6844 24.2467 49.99 23.8301 50.1567 23.3301C50.3233 22.8301 50.3233 22.3301 50.1567 21.8301C49.99 21.3301 49.6844 20.9134 49.24 20.5801ZM20.24 33.4134L17.74 19.5801C17.6289 19.0245 17.3233 18.5523 16.8233 18.1634C16.3233 17.7745 15.7955 17.5801 15.24 17.5801H5.23999C4.68443 17.5801 4.15666 17.7745 3.65666 18.1634C3.15666 18.5523 2.8511 19.0245 2.73999 19.5801L0.239989 33.4134C0.128878 34.1912 0.323323 34.8579 0.823323 35.4134C1.32332 35.969 1.96221 36.2467 2.73999 36.2467H4.40666L5.23999 47.7467C5.3511 48.4134 5.62888 48.969 6.07332 49.4134C6.51777 49.8579 7.07332 50.0801 7.73999 50.0801H12.74C13.4067 50.0801 13.9622 49.8579 14.4067 49.4134C14.8511 48.969 15.1289 48.4134 15.24 47.7467L16.0733 36.2467H17.74C18.5178 36.2467 19.1567 35.969 19.6567 35.4134C20.1567 34.8579 20.3511 34.1912 20.24 33.4134ZM13.9067 33.7467L12.74 47.5801H7.73999L6.57332 33.7467H2.73999L5.23999 20.0801H8.90666V27.7467C8.90666 28.0801 9.04555 28.3579 9.32332 28.5801C9.6011 28.8023 9.90666 28.9134 10.24 28.9134C10.5733 28.9134 10.8511 28.8023 11.0733 28.5801C11.2955 28.3579 11.4067 28.0801 11.4067 27.7467V20.0801H15.24L17.74 33.7467H13.9067ZM10.24 0.0800781C8.12888 0.0800781 6.3511 0.802299 4.90666 2.24674C3.46221 3.69119 2.73999 5.46897 2.73999 7.58008C2.73999 9.69119 3.46221 11.469 4.90666 12.9134C6.3511 14.3579 8.12888 15.0801 10.24 15.0801C12.3511 15.0801 14.1289 14.3579 15.5733 12.9134C17.0178 11.469 17.74 9.69119 17.74 7.58008C17.74 5.46897 17.0178 3.69119 15.5733 2.24674C14.1289 0.802299 12.3511 0.0800781 10.24 0.0800781ZM10.24 12.5801C8.90666 12.5801 7.73999 12.0801 6.73999 11.0801C5.73999 10.0801 5.23999 8.91341 5.23999 7.58008C5.23999 6.24674 5.73999 5.08008 6.73999 4.08008C7.73999 3.08008 8.90666 2.58008 10.24 2.58008C11.5733 2.58008 12.74 3.08008 13.74 4.08008C14.74 5.08008 15.24 6.24674 15.24 7.58008C15.24 8.91341 14.74 10.0801 13.74 11.0801C12.74 12.0801 11.5733 12.5801 10.24 12.5801Z" fill="#1A1A1A"/>
</svg>
