<svg width="20" height="15" viewBox="0 0 20 15" fill="none" xmlns="http://www.w3.org/2000/svg">
<path d="M17.5333 3.94675H8.73333C8.28889 3.94675 7.86667 4.08009 7.46667 4.34675C7.37778 3.68009 7.1 3.13564 6.63333 2.71342C6.16667 2.2912 5.62222 2.08009 5 2.08009C4.51111 2.08009 4.06667 2.1912 3.66667 2.41342V1.41342C3.66667 1.23564 3.61111 1.0912 3.5 0.980086C3.38889 0.868974 3.24444 0.813419 3.06667 0.813419H0.6C0.422222 0.813419 0.277778 0.868974 0.166667 0.980086C0.0555556 1.0912 0 1.23564 0 1.41342V13.9468C0 14.1245 0.0555556 14.269 0.166667 14.3801C0.277778 14.4912 0.422222 14.5468 0.6 14.5468H3.06667C3.24444 14.5468 3.38889 14.4912 3.5 14.3801C3.61111 14.269 3.66667 14.1245 3.66667 13.9468V12.0134H16.3333V13.9468C16.3333 14.1245 16.3889 14.269 16.5 14.3801C16.6111 14.4912 16.7556 14.5468 16.9333 14.5468H19.4C19.5778 14.5468 19.7222 14.4912 19.8333 14.3801C19.9444 14.269 20 14.1245 20 13.9468V6.41342C20 5.74675 19.7556 5.16897 19.2667 4.68009C18.7778 4.1912 18.2 3.94675 17.5333 3.94675ZM5 3.21342C5.35556 3.21342 5.65556 3.34675 5.9 3.61342C6.14444 3.88009 6.26667 4.1912 6.26667 4.54675C6.26667 4.90231 6.14444 5.20231 5.9 5.44675C5.65556 5.6912 5.35556 5.81342 5 5.81342C4.64444 5.81342 4.33333 5.6912 4.06667 5.44675C3.8 5.20231 3.66667 4.90231 3.66667 4.54675C3.66667 4.1912 3.8 3.88009 4.06667 3.61342C4.33333 3.34675 4.64444 3.21342 5 3.21342ZM3.66667 6.61342C4.06667 6.88009 4.5 7.01342 4.96667 7.01342C5.43333 7.01342 5.86667 6.88009 6.26667 6.61342V8.34675H3.66667V6.61342ZM18.8 13.3468H17.4667V11.4134C17.4667 11.2801 17.4111 11.1579 17.3 11.0468C17.1889 10.9356 17.0667 10.8801 16.9333 10.8801H3.06667C2.93333 10.8801 2.81111 10.9356 2.7 11.0468C2.58889 11.1579 2.53333 11.2801 2.53333 11.4134V13.3468H1.2V2.01342H2.53333V8.94675C2.53333 9.08009 2.58889 9.21342 2.7 9.34675C2.81111 9.48009 2.93333 9.54675 3.06667 9.54675H18.8V13.3468ZM18.8 8.34675H7.46667V6.41342C7.46667 6.05786 7.58889 5.75786 7.83333 5.51342C8.07778 5.26897 8.37778 5.14675 8.73333 5.14675H17.5333C17.8889 5.14675 18.1889 5.26897 18.4333 5.51342C18.6778 5.75786 18.8 6.05786 18.8 6.41342V8.34675Z" fill="#1A1A1A"/>
</svg>
