<svg width="21" height="21" viewBox="0 0 21 21" fill="none" xmlns="http://www.w3.org/2000/svg">
<path d="M20.64 10.8134C20.64 10.3245 20.4733 9.91338 20.14 9.58005C19.8067 9.24672 19.3956 9.08005 18.9067 9.08005H3.77335V3.68005C3.77335 3.23561 3.9289 2.85783 4.24001 2.54672C4.46224 2.3245 4.71779 2.19116 5.00668 2.14672C5.29557 2.10227 5.59557 2.1245 5.90668 2.21338C5.50668 2.83561 5.35113 3.5245 5.44001 4.28005C5.5289 5.03561 5.84001 5.68005 6.37335 6.21338L6.50668 6.41338C6.64001 6.50227 6.78446 6.54672 6.94001 6.54672C7.09557 6.54672 7.21779 6.50227 7.30668 6.41338L11.1067 2.61338C11.24 2.48005 11.3067 2.33561 11.3067 2.18005C11.3067 2.0245 11.24 1.88005 11.1067 1.74672L10.9733 1.61338C10.3956 1.03561 9.69557 0.724495 8.87335 0.680051C8.05113 0.635606 7.3289 0.857828 6.70668 1.34672C6.17335 1.03561 5.59557 0.913384 4.97335 0.980051C4.35113 1.04672 3.81779 1.30227 3.37335 1.74672C2.84001 2.28005 2.57335 2.9245 2.57335 3.68005V9.08005H2.37335C1.88446 9.08005 1.47335 9.24672 1.14001 9.58005C0.806681 9.91338 0.640015 10.3245 0.640015 10.8134C0.640015 11.2134 0.751126 11.5578 0.973348 11.8467C1.19557 12.1356 1.46224 12.3467 1.77335 12.4801V13.7467C1.77335 14.8134 2.06224 15.7912 2.64001 16.6801C3.21779 17.5689 3.95113 18.2578 4.84001 18.7467L4.30668 19.8134C4.21779 19.9912 4.20668 20.1467 4.27335 20.2801C4.34001 20.4134 4.44001 20.5245 4.57335 20.6134C4.70668 20.7023 4.85113 20.7134 5.00668 20.6467C5.16224 20.5801 5.28446 20.4801 5.37335 20.3467L5.97335 19.1467C6.41779 19.2356 6.88446 19.2801 7.37335 19.2801H13.9067C14.3956 19.2801 14.8622 19.2356 15.3067 19.1467L15.9067 20.3467C15.9956 20.4801 16.1178 20.5801 16.2733 20.6467C16.4289 20.7134 16.5733 20.7023 16.7067 20.6134C16.84 20.5245 16.94 20.4134 17.0067 20.2801C17.0733 20.1467 17.0622 19.9912 16.9733 19.8134L16.44 18.7467C17.3289 18.2578 18.0622 17.5689 18.64 16.6801C19.2178 15.7912 19.5067 14.8134 19.5067 13.7467V12.4801C19.8178 12.3467 20.0845 12.1356 20.3067 11.8467C20.5289 11.5578 20.64 11.2134 20.64 10.8134ZM9.84002 2.21338L6.97335 5.14672C6.66224 4.70227 6.5289 4.23561 6.57335 3.74672C6.61779 3.25783 6.81779 2.83561 7.17335 2.48005C7.5289 2.1245 7.96224 1.9245 8.47335 1.88005C8.98446 1.83561 9.44002 1.94672 9.84002 2.21338ZM2.37335 10.2801H18.9067C19.04 10.2801 19.1622 10.3356 19.2733 10.4467C19.3845 10.5578 19.44 10.6912 19.44 10.8467C19.44 11.0023 19.3845 11.1356 19.2733 11.2467C19.1622 11.3578 19.04 11.4134 18.9067 11.4134H2.37335C2.24001 11.4134 2.11779 11.3578 2.00668 11.2467C1.89557 11.1356 1.84001 11.0023 1.84001 10.8467C1.84001 10.6912 1.89557 10.5578 2.00668 10.4467C2.11779 10.3356 2.24001 10.2801 2.37335 10.2801ZM18.3067 13.7467C18.3067 14.5467 18.1067 15.2801 17.7067 15.9467C17.3067 16.6134 16.7733 17.1467 16.1067 17.5467C15.44 17.9467 14.7067 18.1467 13.9067 18.1467H7.37335C6.57335 18.1467 5.84001 17.9467 5.17335 17.5467C4.50668 17.1467 3.97335 16.6134 3.57335 15.9467C3.17335 15.2801 2.97335 14.5467 2.97335 13.7467V12.6134H18.3067V13.7467ZM9.10668 6.61338C9.10668 6.79116 9.16224 6.93561 9.27335 7.04672C9.38446 7.15783 9.51779 7.21338 9.67335 7.21338C9.8289 7.21338 9.96224 7.15783 10.0733 7.04672C10.1845 6.93561 10.24 6.79116 10.24 6.61338C10.24 6.43561 10.1845 6.29116 10.0733 6.18005C9.96224 6.06894 9.8289 6.01338 9.67335 6.01338C9.51779 6.01338 9.38446 6.06894 9.27335 6.18005C9.16224 6.29116 9.10668 6.43561 9.10668 6.61338ZM10.7733 4.94672C10.7733 5.1245 10.8289 5.26894 10.94 5.38005C11.0511 5.49116 11.1845 5.54672 11.34 5.54672C11.4956 5.54672 11.6289 5.49116 11.74 5.38005C11.8511 5.26894 11.9067 5.1245 11.9067 4.94672C11.9067 4.76894 11.8511 4.6245 11.74 4.51338C11.6289 4.40227 11.4956 4.34672 11.34 4.34672C11.1845 4.34672 11.0511 4.40227 10.94 4.51338C10.8289 4.6245 10.7733 4.76894 10.7733 4.94672ZM11.1733 7.01338C11.1733 7.14672 11.2289 7.28005 11.34 7.41338C11.4511 7.54672 11.5845 7.61338 11.74 7.61338C11.8956 7.61338 12.0289 7.54672 12.14 7.41338C12.2511 7.28005 12.3067 7.13561 12.3067 6.98005C12.3067 6.8245 12.2511 6.69116 12.14 6.58005C12.0289 6.46894 11.8956 6.41338 11.74 6.41338C11.5845 6.41338 11.4511 6.46894 11.34 6.58005C11.2289 6.69116 11.1733 6.83561 11.1733 7.01338Z" fill="#1A1A1A"/>
</svg>
