<svg width="18" height="21" viewBox="0 0 18 21" fill="none" xmlns="http://www.w3.org/2000/svg">
<path d="M15.1333 3.09339C14.2889 2.29339 13.3444 1.67117 12.3 1.22672C11.2555 0.78228 10.1555 0.560058 8.99998 0.560058C7.84442 0.560058 6.73331 0.78228 5.66665 1.22672C4.59998 1.67117 3.66665 2.29339 2.86665 3.09339C2.06665 3.89339 1.44442 4.82672 0.99998 5.89339C0.555535 6.96006 0.333313 8.07117 0.333313 9.22672C0.333313 10.3823 0.555535 11.4823 0.99998 12.5267C1.44442 13.5712 2.06665 14.5156 2.86665 15.3601L7.46665 19.9601C7.86665 20.3601 8.36665 20.5601 8.96665 20.5601C9.56665 20.5601 10.0889 20.3601 10.5333 19.9601L15.1333 15.3601C15.9333 14.5156 16.5555 13.5712 17 12.5267C17.4444 11.4823 17.6666 10.3823 17.6666 9.22672C17.6666 8.07117 17.4444 6.96006 17 5.89339C16.5555 4.82672 15.9333 3.89339 15.1333 3.09339ZM14.2666 14.4934L9.66665 19.0934C9.48887 19.2712 9.26665 19.3601 8.99998 19.3601C8.73331 19.3601 8.48887 19.2712 8.26665 19.0934L3.66665 14.4934C2.95554 13.7823 2.4222 12.9712 2.06665 12.0601C1.71109 11.1489 1.53331 10.1934 1.53331 9.19339C1.53331 8.19339 1.71109 7.23784 2.06665 6.32672C2.4222 5.41561 2.95554 4.61561 3.66665 3.92672C4.37776 3.23784 5.18887 2.7045 6.09998 2.32672C7.01109 1.94895 7.96665 1.76006 8.96665 1.76006C9.96665 1.76006 10.9222 1.94895 11.8333 2.32672C12.7444 2.7045 13.5555 3.22672 14.2666 3.89339C15.2444 4.87117 15.9 6.0045 16.2333 7.29339C16.5666 8.58228 16.5666 9.87117 16.2333 11.1601C15.9 12.4489 15.2444 13.5601 14.2666 14.4934ZM8.99998 6.09339C8.15554 6.09339 7.4222 6.4045 6.79998 7.02672C6.17776 7.64895 5.86665 8.38228 5.86665 9.22672C5.86665 10.0712 6.17776 10.7934 6.79998 11.3934C7.4222 11.9934 8.15554 12.2934 8.99998 12.2934C9.84442 12.2934 10.5666 11.9934 11.1666 11.3934C11.7666 10.7934 12.0666 10.0712 12.0666 9.22672C12.0666 8.38228 11.7666 7.64895 11.1666 7.02672C10.5666 6.4045 9.84442 6.09339 8.99998 6.09339ZM8.99998 11.1601C8.46665 11.1601 8.01109 10.9712 7.63331 10.5934C7.25554 10.2156 7.06665 9.76006 7.06665 9.22672C7.06665 8.69339 7.25554 8.23784 7.63331 7.86006C8.01109 7.48228 8.46665 7.29339 8.99998 7.29339C9.53331 7.29339 9.98887 7.48228 10.3666 7.86006C10.7444 8.23784 10.9333 8.69339 10.9333 9.22672C10.9333 9.76006 10.7444 10.2156 10.3666 10.5934C9.98887 10.9712 9.53331 11.1601 8.99998 11.1601Z" fill="#1A1A1A"/>
</svg>
