<svg width="14" height="14" viewBox="0 0 14 14" fill="none" xmlns="http://www.w3.org/2000/svg">
<path d="M3.29745 13.5898H0.572844V4.83008H3.29745V13.5898ZM1.9205 3.6582C1.07089 3.6582 0.367765 2.92578 0.367765 2.04688C0.367765 1.19727 1.07089 0.494141 1.9205 0.494141C2.79941 0.494141 3.50253 1.19727 3.50253 2.04688C3.50253 2.92578 2.79941 3.6582 1.9205 3.6582ZM13.4635 13.5898H10.7682V9.3418C10.7682 8.31641 10.7389 7.02734 9.33261 7.02734C7.92636 7.02734 7.72128 8.11133 7.72128 9.25391V13.5898H4.99667V4.83008H7.60409V6.03125H7.63339C8.01425 5.35742 8.89316 4.625 10.2115 4.625C12.9654 4.625 13.4928 6.44141 13.4928 8.78516V13.5898H13.4635Z" fill="#1A1A1A"/>
<a href="https://www.figma.com/design/BHhbuNqk6rgae4JDxTvQgo/65%2B-Real-Estate-Website-Templates-(Community)?node-id=2-3109">
<rect fill="black" fill-opacity="0" x="0.178312" y="-1.125" width="13.125" height="17.25"/>
</a>
</svg>
