<svg width="14" height="14" viewBox="0 0 14 14" fill="none" xmlns="http://www.w3.org/2000/svg">
<path d="M6.74985 3.5957C8.59555 3.5957 10.119 5.11914 10.119 6.96484C10.119 8.83984 8.59555 10.334 6.74985 10.334C4.87485 10.334 3.38071 8.83984 3.38071 6.96484C3.38071 5.11914 4.87485 3.5957 6.74985 3.5957ZM6.74985 9.16211C7.95102 9.16211 8.91782 8.19531 8.91782 6.96484C8.91782 5.76367 7.95102 4.79688 6.74985 4.79688C5.51938 4.79688 4.55259 5.76367 4.55259 6.96484C4.55259 8.19531 5.54868 9.16211 6.74985 9.16211ZM11.0272 3.47852C11.0272 3.91797 10.6756 4.26953 10.2362 4.26953C9.79673 4.26953 9.44516 3.91797 9.44516 3.47852C9.44516 3.03906 9.79673 2.6875 10.2362 2.6875C10.6756 2.6875 11.0272 3.03906 11.0272 3.47852ZM13.2538 4.26953C13.3124 5.35352 13.3124 8.60547 13.2538 9.68945C13.1952 10.7441 12.9608 11.6523 12.1991 12.4434C11.4374 13.2051 10.4999 13.4395 9.44516 13.498C8.36118 13.5566 5.10923 13.5566 4.02524 13.498C2.97055 13.4395 2.06235 13.2051 1.27134 12.4434C0.509617 11.6523 0.275242 10.7441 0.216649 9.68945C0.158055 8.60547 0.158055 5.35352 0.216649 4.26953C0.275242 3.21484 0.509617 2.27734 1.27134 1.51562C2.06235 0.753906 2.97055 0.519531 4.02524 0.460938C5.10923 0.402344 8.36118 0.402344 9.44516 0.460938C10.4999 0.519531 11.4374 0.753906 12.1991 1.51562C12.9608 2.27734 13.1952 3.21484 13.2538 4.26953ZM11.8475 10.832C12.1991 9.98242 12.1112 7.93164 12.1112 6.96484C12.1112 6.02734 12.1991 3.97656 11.8475 3.09766C11.6131 2.54102 11.1737 2.07227 10.617 1.86719C9.73813 1.51562 7.68735 1.60352 6.74985 1.60352C5.78305 1.60352 3.73227 1.51562 2.88266 1.86719C2.29673 2.10156 1.85727 2.54102 1.6229 3.09766C1.27134 3.97656 1.35923 6.02734 1.35923 6.96484C1.35923 7.93164 1.27134 9.98242 1.6229 10.832C1.85727 11.418 2.29673 11.8574 2.88266 12.0918C3.73227 12.4434 5.78305 12.3555 6.74985 12.3555C7.68735 12.3555 9.73813 12.4434 10.617 12.0918C11.1737 11.8574 11.6424 11.418 11.8475 10.832Z" fill="#1A1A1A"/>
<a href="https://www.figma.com/design/BHhbuNqk6rgae4JDxTvQgo/65%2B-Real-Estate-Website-Templates-(Community)?node-id=2-3109">
<rect fill="black" fill-opacity="0" x="-0.282375" y="-1.125" width="13.125" height="17.25"/>
</a>
</svg>
