<svg width="16" height="13" viewBox="0 0 16 13" fill="none" xmlns="http://www.w3.org/2000/svg">
<path d="M1.37744 6.20853H13.3881L8.78902 1.82929C8.5482 1.59997 8.53887 1.21898 8.76825 0.978232C8.99733 0.737783 9.37842 0.728153 9.61954 0.957468L14.8719 5.95905C15.0991 6.18655 15.2247 6.4887 15.2247 6.81041C15.2247 7.1318 15.0991 7.43425 14.8613 7.67168L9.61925 12.6631C9.50275 12.774 9.35344 12.8291 9.20413 12.8291C9.04519 12.8291 8.88625 12.7665 8.76795 12.6423C8.53857 12.4016 8.5479 12.0209 8.78872 11.7916L13.4071 7.41228H1.37744C1.04511 7.41228 0.775391 7.14264 0.775391 6.81041C0.775391 6.47817 1.04511 6.20853 1.37744 6.20853Z" fill="white"/>
</svg>
